<svg width="54" height="53" viewBox="0 0 54 53" fill="none" xmlns="http://www.w3.org/2000/svg">
<path d="M22.9489 44.6C21.1789 44.6 19.5089 44.4 17.9389 44.01C16.3689 43.62 15.0089 43.04 13.8689 42.29V33.86C15.2189 34.71 16.7589 35.43 18.5089 36C20.2489 36.58 21.8289 36.87 23.2389 36.87C24.4289 36.87 25.3289 36.62 25.9389 36.12C26.5489 35.62 26.8589 34.92 26.8589 34C26.8589 33.57 26.7589 33.16 26.5689 32.78C26.3789 32.4 26.0989 32.03 25.7489 31.65C25.3989 31.27 24.4489 30.44 22.9089 29.16C21.0289 27.65 19.6689 26.11 18.8189 24.54C17.9689 22.97 17.5389 21.24 17.5389 19.36C17.5389 17.26 18.0689 15.37 19.1189 13.69C20.1689 12.01 21.6589 10.71 23.5789 9.79C24.6789 9.26 25.8489 8.89 27.0989 8.66V0C12.4789 0.02 0.628906 11.87 0.628906 26.5C0.628906 41.13 12.4689 52.98 27.0889 53V44.22C25.8289 44.47 24.4489 44.6 22.9489 44.6Z" fill="#FFB163"/>
<path d="M27.0884 19.7601V17.5801C26.9684 17.9001 26.8984 18.2601 26.8984 18.6601C26.8984 19.0401 26.9584 19.4001 27.0884 19.7601Z" fill="#FFB163"/>
<path d="M19.1094 13.6899C18.0594 15.3699 17.5294 17.2599 17.5294 19.3599C17.5294 21.2399 17.9594 22.9599 18.8094 24.5399C19.6594 26.1099 21.0294 27.6599 22.8994 29.1599C24.4394 30.4399 25.3894 31.2799 25.7394 31.6499C26.0894 32.0299 26.3694 32.3999 26.5594 32.7799C26.7494 33.1599 26.8494 33.5599 26.8494 33.9999C26.8494 34.9199 26.5394 35.6199 25.9294 36.1199C25.3194 36.6199 24.4194 36.8699 23.2294 36.8699C21.8194 36.8699 20.2394 36.5799 18.4994 35.9999C16.7594 35.4199 15.2094 34.7099 13.8594 33.8599V42.2899C14.9994 43.0399 16.3594 43.6199 17.9294 44.0099C19.4994 44.3999 21.1694 44.5999 22.9394 44.5999C24.4394 44.5999 25.8094 44.4699 27.0794 44.2199V19.7599C26.9594 19.4099 26.8894 19.0399 26.8894 18.6699C26.8894 18.2599 26.9494 17.8999 27.0794 17.5899V8.66992C25.8294 8.89992 24.6594 9.26992 23.5594 9.79992C21.6494 10.7099 20.1594 12.0099 19.1094 13.6899Z" fill="#0F2831"/>
<path d="M53.6198 26.5C53.6198 11.86 41.7598 0 27.1198 0C27.1098 0 27.0998 0 27.0898 0V8.66C28.0198 8.49 28.9898 8.4 30.0098 8.4C33.8498 8.4 37.2998 9.26 40.3698 10.98L37.1198 18.13C34.3698 16.72 32.0398 16.01 30.1098 16.01C29.0798 16.01 28.2898 16.24 27.7398 16.68C27.4498 16.92 27.2298 17.22 27.0998 17.57V19.75C27.2298 20.13 27.4398 20.5 27.7198 20.86C28.2598 21.54 29.2798 22.45 30.7898 23.59C32.6798 24.99 34.0898 26.46 34.9998 28C35.9198 29.54 36.3698 31.31 36.3698 33.3C36.3698 36.86 35.1898 39.64 32.8298 41.62C31.3098 42.9 29.3898 43.76 27.0898 44.22V53C27.0998 53 27.1098 53 27.1198 53C41.7498 53 53.6198 41.14 53.6198 26.5Z" fill="#EC9A5A"/>
<path d="M27.7281 16.6902C28.2781 16.2402 29.0681 16.0202 30.0981 16.0202C32.0281 16.0202 34.3581 16.7302 37.1081 18.1402L40.3581 10.9902C37.2881 9.27016 33.8381 8.41016 29.9981 8.41016C28.9781 8.41016 28.0081 8.50015 27.0781 8.67015V17.5902C27.2281 17.2202 27.4381 16.9202 27.7281 16.6902Z" fill="#0B1C21"/>
<path d="M32.8277 41.6298C35.1877 39.6498 36.3677 36.8698 36.3677 33.3098C36.3677 31.3198 35.9077 29.5498 34.9977 28.0098C34.0777 26.4698 32.6777 24.9998 30.7877 23.5998C29.2777 22.4598 28.2577 21.5498 27.7177 20.8698C27.4377 20.5098 27.2277 20.1398 27.0977 19.7598V44.2298C29.3877 43.7698 31.2977 42.9098 32.8277 41.6298Z" fill="#0B1C21"/>
</svg>
